<?xml version="1.0" encoding="UTF-8"?>
<svg width="50px" height="43px" viewBox="0 0 50 43" xmlns="http://www.w3.org/2000/svg" xmlns:xlink="http://www.w3.org/1999/xlink" version="1.1">
 <path id="Path" d="M48.4 26.5 C47.5 26.5 46.7 27.2 46.7 28.2 L46.7 39.8 3.4 39.8 3.4 28.2 C3.4 27.3 2.7 26.5 1.7 26.5 0.7 26.5 0 27.2 0 28.2 L0 41.4 C0 42.3 0.7 43.1 1.7 43.1 L48.4 43.1 C49.3 43.1 50.1 42.4 50.1 41.4 L50.1 28.2 C50.1 27.2 49.4 26.5 48.4 26.5 Z M23.9 32.6 C24.2 32.9 24.7 33.1 25.1 33.1 25.5 33.1 26 32.9 26.3 32.6 L36.3 21 C37 20.3 37 19.3 36.3 18.6 35.6 17.9 34.6 17.9 33.9 18.6 L26.8 26.9 26.8 1.6 C26.8 0.7 26.1 -0.1 25.1 -0.1 24.1 -0.1 23.4 0.6 23.4 1.6 L23.4 26.9 16.3 18.6 C15.6 17.9 14.6 17.9 13.9 18.6 13.2 19.3 13.2 20.3 13.9 21 Z" fill="#000000" fill-opacity="1" stroke="none"/>
</svg>
